<mxfile host="app.diagrams.net" modified="2023-06-27T22:30:56.247Z" agent="Mozilla/5.0 (X11; Linux x86_64; rv:109.0) Gecko/20100101 Firefox/114.0" etag="J7_eK7P61Hm_PkeJEy_n" version="21.3.4" type="github">
  <diagram name="Page-1" id="c7558073-3199-34d8-9f00-42111426c3f3">
    <mxGraphModel dx="594" dy="1609" grid="1" gridSize="10" guides="1" tooltips="1" connect="1" arrows="1" fold="1" page="1" pageScale="1" pageWidth="826" pageHeight="1169" background="none" math="0" shadow="0">
      <root>
        <mxCell id="0" />
        <mxCell id="1" parent="0" />
        <mxCell id="2" value="&lt;div&gt;&lt;br&gt;&lt;u&gt;PerfLoader&lt;/u&gt;&lt;br&gt;&lt;br&gt;Test 1&lt;br&gt;&lt;br&gt;Test 2&lt;br&gt;&lt;br&gt;Test 3&lt;/div&gt;" style="verticalAlign=middle;align=center;overflow=fill;fontSize=12;fontFamily=Helvetica;html=1;rounded=1;fontStyle=1;strokeWidth=3;fillColor=#ffe6cc;strokeColor=#d79b00;" parent="1" vertex="1">
          <mxGeometry x="236" y="240" width="124" height="120" as="geometry" />
        </mxCell>
        <mxCell id="3" value="User" style="whiteSpace=wrap;align=center;verticalAlign=middle;fontStyle=1;strokeWidth=3;fillColor=#fff2cc;strokeColor=#d6b656;rounded=1;" parent="1" vertex="1">
          <mxGeometry x="246" y="126" width="90" height="60" as="geometry" />
        </mxCell>
        <mxCell id="10" value="&lt;p style=&quot;margin: 0px; margin-top: 4px; text-align: center; text-decoration: underline;&quot;&gt;&lt;strong&gt;PerfRunner 1&lt;br&gt;&lt;/strong&gt;&lt;/p&gt;&lt;hr&gt;" style="verticalAlign=middle;align=center;overflow=fill;fontSize=12;fontFamily=Helvetica;html=1;rounded=1;fontStyle=1;strokeWidth=3;fillColor=#d5e8d4;strokeColor=#82b366;" parent="1" vertex="1">
          <mxGeometry x="40" y="550" width="110" height="90" as="geometry" />
        </mxCell>
        <mxCell id="36" value="" style="edgeStyle=none;noEdgeStyle=1;strokeColor=#E1D5E7;strokeWidth=2" parent="1" source="3" target="2" edge="1">
          <mxGeometry width="100" height="100" relative="1" as="geometry">
            <mxPoint x="20" y="250" as="sourcePoint" />
            <mxPoint x="120" y="150" as="targetPoint" />
          </mxGeometry>
        </mxCell>
        <mxCell id="11" value="&lt;p style=&quot;margin: 0px; margin-top: 4px; text-align: center; text-decoration: underline;&quot;&gt;&lt;strong&gt;PerfRunner 2&lt;br&gt;&lt;/strong&gt;&lt;/p&gt;&lt;p style=&quot;margin: 0px; margin-top: 4px; text-align: center; text-decoration: underline;&quot;&gt;&lt;strong&gt;&lt;/strong&gt;&lt;/p&gt;&lt;hr&gt;" style="verticalAlign=middle;align=center;overflow=fill;fontSize=12;fontFamily=Helvetica;html=1;rounded=1;fontStyle=1;strokeWidth=3;fillColor=#d5e8d4;strokeColor=#82b366;" parent="1" vertex="1">
          <mxGeometry x="229.99999999999994" y="550" width="110" height="90" as="geometry" />
        </mxCell>
        <mxCell id="QN_GAZy3dg1bif2aLTLd-100" value="&lt;div&gt;&lt;br&gt;&lt;/div&gt;&lt;div&gt;App 1&lt;/div&gt;" style="verticalAlign=middle;align=center;overflow=fill;fontSize=12;fontFamily=Helvetica;html=1;rounded=1;fontStyle=1;strokeWidth=3;fillColor=#f5f5f5;fontColor=#333333;strokeColor=#666666;" vertex="1" parent="1">
          <mxGeometry x="125.99999999999994" y="920" width="110" height="90" as="geometry" />
        </mxCell>
        <mxCell id="QN_GAZy3dg1bif2aLTLd-101" value="&lt;div&gt;&lt;br&gt;&lt;/div&gt;&lt;div&gt;App 2&lt;/div&gt;" style="verticalAlign=middle;align=center;overflow=fill;fontSize=12;fontFamily=Helvetica;html=1;rounded=1;fontStyle=1;strokeWidth=3;fillColor=#f5f5f5;fontColor=#333333;strokeColor=#666666;" vertex="1" parent="1">
          <mxGeometry x="389.99999999999994" y="920" width="110" height="90" as="geometry" />
        </mxCell>
        <mxCell id="QN_GAZy3dg1bif2aLTLd-107" value="" style="endArrow=classic;html=1;rounded=0;exitX=0.909;exitY=1.022;exitDx=0;exitDy=0;exitPerimeter=0;entryX=0;entryY=0;entryDx=0;entryDy=0;" edge="1" parent="1" source="10" target="QN_GAZy3dg1bif2aLTLd-101">
          <mxGeometry width="50" height="50" relative="1" as="geometry">
            <mxPoint x="310" y="650" as="sourcePoint" />
            <mxPoint x="380" y="910" as="targetPoint" />
          </mxGeometry>
        </mxCell>
        <mxCell id="QN_GAZy3dg1bif2aLTLd-109" value="" style="endArrow=classic;html=1;rounded=0;exitX=0.5;exitY=1;exitDx=0;exitDy=0;entryX=0.25;entryY=0;entryDx=0;entryDy=0;" edge="1" parent="1" source="10" target="QN_GAZy3dg1bif2aLTLd-100">
          <mxGeometry width="50" height="50" relative="1" as="geometry">
            <mxPoint x="310" y="650" as="sourcePoint" />
            <mxPoint x="360" y="600" as="targetPoint" />
          </mxGeometry>
        </mxCell>
        <mxCell id="QN_GAZy3dg1bif2aLTLd-110" value="" style="endArrow=classic;html=1;rounded=0;exitX=0.25;exitY=1;exitDx=0;exitDy=0;entryX=0.5;entryY=0;entryDx=0;entryDy=0;" edge="1" parent="1" source="11" target="QN_GAZy3dg1bif2aLTLd-100">
          <mxGeometry width="50" height="50" relative="1" as="geometry">
            <mxPoint x="105" y="650" as="sourcePoint" />
            <mxPoint x="164" y="930" as="targetPoint" />
          </mxGeometry>
        </mxCell>
        <mxCell id="QN_GAZy3dg1bif2aLTLd-111" value="" style="endArrow=classic;html=1;rounded=0;exitX=0.75;exitY=1;exitDx=0;exitDy=0;entryX=0.418;entryY=0;entryDx=0;entryDy=0;entryPerimeter=0;" edge="1" parent="1" source="11" target="QN_GAZy3dg1bif2aLTLd-101">
          <mxGeometry width="50" height="50" relative="1" as="geometry">
            <mxPoint x="115" y="660" as="sourcePoint" />
            <mxPoint x="174" y="940" as="targetPoint" />
          </mxGeometry>
        </mxCell>
        <mxCell id="QN_GAZy3dg1bif2aLTLd-112" value="" style="endArrow=classic;html=1;rounded=0;exitX=0.75;exitY=1;exitDx=0;exitDy=0;entryX=0.636;entryY=0;entryDx=0;entryDy=0;entryPerimeter=0;" edge="1" parent="1" target="QN_GAZy3dg1bif2aLTLd-101">
          <mxGeometry width="50" height="50" relative="1" as="geometry">
            <mxPoint x="495.5" y="640" as="sourcePoint" />
            <mxPoint x="450" y="910" as="targetPoint" />
          </mxGeometry>
        </mxCell>
        <mxCell id="QN_GAZy3dg1bif2aLTLd-113" value="" style="endArrow=classic;html=1;rounded=0;entryX=0.855;entryY=-0.033;entryDx=0;entryDy=0;entryPerimeter=0;exitX=0.25;exitY=1;exitDx=0;exitDy=0;" edge="1" parent="1" target="QN_GAZy3dg1bif2aLTLd-100">
          <mxGeometry width="50" height="50" relative="1" as="geometry">
            <mxPoint x="440.5" y="640" as="sourcePoint" />
            <mxPoint x="455" y="937" as="targetPoint" />
          </mxGeometry>
        </mxCell>
        <mxCell id="QN_GAZy3dg1bif2aLTLd-114" value="" style="endArrow=classic;html=1;rounded=0;exitX=0.691;exitY=1.044;exitDx=0;exitDy=0;entryX=0.5;entryY=0;entryDx=0;entryDy=0;exitPerimeter=0;" edge="1" parent="1">
          <mxGeometry width="50" height="50" relative="1" as="geometry">
            <mxPoint x="336" y="360" as="sourcePoint" />
            <mxPoint x="468" y="550" as="targetPoint" />
          </mxGeometry>
        </mxCell>
        <mxCell id="QN_GAZy3dg1bif2aLTLd-115" value="" style="endArrow=classic;html=1;rounded=0;exitX=0.691;exitY=1.044;exitDx=0;exitDy=0;entryX=0.5;entryY=0;entryDx=0;entryDy=0;exitPerimeter=0;" edge="1" parent="1" target="10">
          <mxGeometry width="50" height="50" relative="1" as="geometry">
            <mxPoint x="246" y="360" as="sourcePoint" />
            <mxPoint x="378" y="550" as="targetPoint" />
          </mxGeometry>
        </mxCell>
        <mxCell id="QN_GAZy3dg1bif2aLTLd-116" value="" style="endArrow=classic;html=1;rounded=0;entryX=0.409;entryY=0.022;entryDx=0;entryDy=0;entryPerimeter=0;" edge="1" parent="1" source="2" target="11">
          <mxGeometry width="50" height="50" relative="1" as="geometry">
            <mxPoint x="256" y="370" as="sourcePoint" />
            <mxPoint x="105" y="560" as="targetPoint" />
          </mxGeometry>
        </mxCell>
        <mxCell id="QN_GAZy3dg1bif2aLTLd-117" value="http/ gRPC" style="text;html=1;strokeColor=none;fillColor=none;align=center;verticalAlign=middle;whiteSpace=wrap;rounded=0;" vertex="1" parent="1">
          <mxGeometry x="70" y="760" width="60" height="30" as="geometry" />
        </mxCell>
        <mxCell id="QN_GAZy3dg1bif2aLTLd-118" value="http/ gRPC" style="text;html=1;strokeColor=none;fillColor=none;align=center;verticalAlign=middle;whiteSpace=wrap;rounded=0;" vertex="1" parent="1">
          <mxGeometry x="140" y="690" width="60" height="30" as="geometry" />
        </mxCell>
        <mxCell id="QN_GAZy3dg1bif2aLTLd-120" value="http/ gRPC" style="text;html=1;strokeColor=none;fillColor=none;align=center;verticalAlign=middle;whiteSpace=wrap;rounded=0;" vertex="1" parent="1">
          <mxGeometry x="170" y="760" width="60" height="30" as="geometry" />
        </mxCell>
        <mxCell id="QN_GAZy3dg1bif2aLTLd-124" value="http/ gRPC" style="text;html=1;strokeColor=none;fillColor=none;align=center;verticalAlign=middle;whiteSpace=wrap;rounded=0;" vertex="1" parent="1">
          <mxGeometry x="280" y="690" width="60" height="30" as="geometry" />
        </mxCell>
        <mxCell id="QN_GAZy3dg1bif2aLTLd-125" value="http/ gRPC" style="text;html=1;strokeColor=none;fillColor=none;align=center;verticalAlign=middle;whiteSpace=wrap;rounded=0;" vertex="1" parent="1">
          <mxGeometry x="390" y="690" width="60" height="30" as="geometry" />
        </mxCell>
        <mxCell id="QN_GAZy3dg1bif2aLTLd-126" value="http/ gRPC" style="text;html=1;strokeColor=none;fillColor=none;align=center;verticalAlign=middle;whiteSpace=wrap;rounded=0;" vertex="1" parent="1">
          <mxGeometry x="470" y="780" width="60" height="30" as="geometry" />
        </mxCell>
        <mxCell id="QN_GAZy3dg1bif2aLTLd-127" value="&lt;p style=&quot;margin: 0px; margin-top: 4px; text-align: center; text-decoration: underline;&quot;&gt;&lt;strong&gt;PerfRunner 2&lt;br&gt;&lt;/strong&gt;&lt;/p&gt;&lt;p style=&quot;margin: 0px; margin-top: 4px; text-align: center; text-decoration: underline;&quot;&gt;&lt;strong&gt;&lt;/strong&gt;&lt;/p&gt;&lt;hr&gt;" style="verticalAlign=middle;align=center;overflow=fill;fontSize=12;fontFamily=Helvetica;html=1;rounded=1;fontStyle=1;strokeWidth=3;fillColor=#d5e8d4;strokeColor=#82b366;" vertex="1" parent="1">
          <mxGeometry x="412.99999999999994" y="550" width="110" height="90" as="geometry" />
        </mxCell>
        <mxCell id="QN_GAZy3dg1bif2aLTLd-129" value="" style="endArrow=none;html=1;rounded=0;" edge="1" parent="1">
          <mxGeometry width="50" height="50" relative="1" as="geometry">
            <mxPoint x="30" y="220" as="sourcePoint" />
            <mxPoint x="600" y="220" as="targetPoint" />
          </mxGeometry>
        </mxCell>
        <mxCell id="QN_GAZy3dg1bif2aLTLd-130" value="&lt;b&gt;Redis Cache&lt;br&gt;User(s)&lt;/b&gt;" style="rounded=1;whiteSpace=wrap;html=1;strokeWidth=2;fillWeight=4;hachureGap=8;hachureAngle=45;fillColor=#1ba1e2;sketch=1;" vertex="1" parent="1">
          <mxGeometry x="500" y="371" width="120" height="60" as="geometry" />
        </mxCell>
        <mxCell id="QN_GAZy3dg1bif2aLTLd-133" value="" style="endArrow=classic;startArrow=classic;html=1;rounded=0;exitX=0.655;exitY=-0.022;exitDx=0;exitDy=0;exitPerimeter=0;" edge="1" parent="1" source="10">
          <mxGeometry width="50" height="50" relative="1" as="geometry">
            <mxPoint x="450" y="450" as="sourcePoint" />
            <mxPoint x="500" y="400" as="targetPoint" />
          </mxGeometry>
        </mxCell>
        <mxCell id="QN_GAZy3dg1bif2aLTLd-135" value="" style="endArrow=classic;startArrow=classic;html=1;rounded=0;exitX=0.618;exitY=0.033;exitDx=0;exitDy=0;exitPerimeter=0;" edge="1" parent="1" source="11" target="QN_GAZy3dg1bif2aLTLd-130">
          <mxGeometry width="50" height="50" relative="1" as="geometry">
            <mxPoint x="122" y="558" as="sourcePoint" />
            <mxPoint x="510" y="410" as="targetPoint" />
          </mxGeometry>
        </mxCell>
        <mxCell id="QN_GAZy3dg1bif2aLTLd-136" value="" style="endArrow=classic;startArrow=classic;html=1;rounded=0;exitX=0.75;exitY=0;exitDx=0;exitDy=0;entryX=0.642;entryY=1;entryDx=0;entryDy=0;entryPerimeter=0;" edge="1" parent="1" source="QN_GAZy3dg1bif2aLTLd-127" target="QN_GAZy3dg1bif2aLTLd-130">
          <mxGeometry width="50" height="50" relative="1" as="geometry">
            <mxPoint x="308" y="563" as="sourcePoint" />
            <mxPoint x="580" y="440" as="targetPoint" />
          </mxGeometry>
        </mxCell>
        <mxCell id="QN_GAZy3dg1bif2aLTLd-137" value="User push/ pop" style="text;html=1;strokeColor=none;fillColor=none;align=center;verticalAlign=middle;whiteSpace=wrap;rounded=0;" vertex="1" parent="1">
          <mxGeometry x="170" y="480" width="60" height="30" as="geometry" />
        </mxCell>
        <mxCell id="QN_GAZy3dg1bif2aLTLd-138" value="User push/ pop" style="text;html=1;strokeColor=none;fillColor=none;align=center;verticalAlign=middle;whiteSpace=wrap;rounded=0;" vertex="1" parent="1">
          <mxGeometry x="330" y="480" width="60" height="30" as="geometry" />
        </mxCell>
        <mxCell id="QN_GAZy3dg1bif2aLTLd-139" value="User push/ pop" style="text;html=1;strokeColor=none;fillColor=none;align=center;verticalAlign=middle;whiteSpace=wrap;rounded=0;" vertex="1" parent="1">
          <mxGeometry x="480" y="470" width="60" height="30" as="geometry" />
        </mxCell>
        <mxCell id="QN_GAZy3dg1bif2aLTLd-140" value="&lt;div&gt;&lt;span style=&quot;background-color: rgb(255, 190, 111);&quot;&gt;dotnet/sdk:6.0&lt;/span&gt;&lt;/div&gt;&lt;div&gt;&lt;span style=&quot;background-color: rgb(255, 190, 111);&quot;&gt;image&lt;/span&gt;&lt;/div&gt;" style="text;html=1;strokeColor=none;fillColor=none;align=center;verticalAlign=middle;whiteSpace=wrap;rounded=0;" vertex="1" parent="1">
          <mxGeometry x="560" y="560" width="60" height="30" as="geometry" />
        </mxCell>
        <mxCell id="QN_GAZy3dg1bif2aLTLd-141" value="&lt;span style=&quot;background-color: rgb(255, 190, 111);&quot;&gt;redis:alpine image&lt;/span&gt;" style="text;html=1;strokeColor=none;fillColor=none;align=center;verticalAlign=middle;whiteSpace=wrap;rounded=0;" vertex="1" parent="1">
          <mxGeometry x="630" y="386" width="60" height="30" as="geometry" />
        </mxCell>
        <mxCell id="QN_GAZy3dg1bif2aLTLd-144" value="&lt;div&gt;&lt;span style=&quot;background-color: rgb(255, 190, 111);&quot;&gt;dotnet/sdk:6.0&lt;/span&gt;&lt;/div&gt;&lt;div&gt;&lt;span style=&quot;background-color: rgb(255, 190, 111);&quot;&gt;image&lt;/span&gt;&lt;/div&gt;" style="text;html=1;strokeColor=none;fillColor=none;align=center;verticalAlign=middle;whiteSpace=wrap;rounded=0;" vertex="1" parent="1">
          <mxGeometry x="390" y="280" width="60" height="30" as="geometry" />
        </mxCell>
      </root>
    </mxGraphModel>
  </diagram>
</mxfile>
